# Blender v2.69 (sub 0) OBJ File: 'ConcreteFence.blend'
# www.blender.org
mtllib BaseBlock.mtl
o BaseBlock
v -0.375000 0.000000 0.475000
v -0.325000 0.550000 0.325000
v -0.225000 0.550000 0.175000
v -0.180000 0.100000 0.130000
v 0.375000 0.000000 0.475000
v 0.325000 0.550000 0.325000
v 0.225000 0.550000 0.175000
v 0.180000 0.100000 0.130000
v -0.375000 0.000000 -0.475000
v -0.325000 0.550000 -0.325000
v -0.225000 0.550000 -0.175000
v -0.180000 0.100000 -0.130000
v 0.375000 0.000000 -0.475000
v 0.325000 0.550000 -0.325000
v 0.225000 0.550000 -0.175000
v 0.180000 0.100000 -0.130000
vt 0.337682 0.427730
vt 0.337682 0.765411
vt 0.081894 0.450242
vt 0.586333 0.000000
vt 0.834985 0.067536
vt 0.586333 0.427730
vt 0.593469 0.720387
vt 0.593469 0.427730
vt 0.661005 0.675363
vt 0.593469 0.922996
vt 0.796383 0.902735
vt 1.000000 0.720387
vt 1.000000 0.877972
vt 0.796383 0.740648
vt 0.337681 0.427730
vt 0.000000 0.427730
vt 0.337682 0.000000
vt 0.337682 0.742899
vt 0.337682 0.450242
vt 0.593469 0.765411
vt 0.337682 0.922996
vt 0.134064 0.902735
vt 0.134064 0.927498
vt 0.017001 0.927498
vt 0.134064 0.765411
vt 0.886126 0.720387
vt 0.818590 0.675363
vt 0.540595 0.785672
vt 0.540595 0.947759
vt 0.886126 0.427730
vt 0.818590 0.472754
vt 0.586333 0.360194
vt 0.081894 0.742899
vt 0.834985 0.360193
vt 0.661005 0.472754
vt 0.796383 0.857711
vt 0.000000 0.000000
vt 0.134064 0.785672
vt 0.017001 0.765411
vt 0.337682 0.968020
vt 0.586333 0.067536
vn 0.000000 0.263117 0.964764
vn 0.995893 0.090536 0.000000
vn 0.000000 1.000000 0.000000
vn 0.000000 0.099504 -0.995037
vn 0.995037 0.099504 0.000000
vn 0.000000 -1.000000 0.000000
vn 0.000000 0.263117 -0.964764
vn -0.995037 0.099504 0.000000
vn 0.000000 0.099504 0.995037
vn 0.000000 1.000000 -0.000001
vn -0.995893 0.090536 0.000000
vn 0.000000 1.000000 0.000001
usemtl Concrete
s off
f 1/1/1 5/2/1 2/3/1
f 13/4/2 14/5/2 5/6/2
f 2/7/3 6/8/3 3/9/3
f 3/10/4 7/7/4 4/11/4
f 11/12/5 3/13/5 12/14/5
f 9/15/6 13/16/6 1/17/6
f 10/18/7 14/19/7 9/20/7
f 15/21/8 16/22/8 7/2/8
f 12/23/3 4/24/3 16/25/3
f 10/26/3 2/7/3 11/27/3
f 12/28/9 16/29/9 11/2/9
f 14/30/3 15/31/3 6/8/3
f 11/27/10 15/31/10 10/26/10
f 9/1/11 1/17/11 10/32/11
f 5/2/1 6/33/1 2/3/1
f 14/5/2 6/34/2 5/6/2
f 6/8/12 7/35/12 3/9/12
f 7/7/4 8/14/4 4/11/4
f 3/13/5 4/36/5 12/14/5
f 13/16/6 5/37/6 1/17/6
f 14/19/7 13/8/7 9/20/7
f 16/22/8 8/38/8 7/2/8
f 4/24/3 8/39/3 16/25/3
f 2/7/3 3/9/3 11/27/3
f 16/29/9 15/40/9 11/2/9
f 15/31/3 7/35/3 6/8/3
f 15/31/3 14/30/3 10/26/3
f 1/17/11 2/41/11 10/32/11
