# Created by Andrey P.  pnn32.deviantart.com
# Blender v2.69 (sub 0) OBJ File: 'ConcreteFence.blend'
# www.blender.org
mtllib Panel_DMD_2.50x2.55.mtl
o Panel_DMD_2.50x2.55
v -1.125000 1.060000 0.050001
v -1.125000 2.410000 0.050002
v -1.150000 1.030000 0.150001
v -1.150000 2.440000 0.150002
v 1.125000 1.060000 0.050001
v 1.125000 2.410000 0.050002
v 1.150000 1.030000 0.150001
v 1.150000 2.440000 0.150002
v -1.125000 0.610000 0.100000
v -1.125000 0.920000 0.100001
v -1.150000 0.950000 0.150001
v 1.125000 0.610000 0.100000
v 1.125000 0.920000 0.100001
v 1.230000 0.000000 0.000000
v -1.250000 0.000000 0.000000
v 1.230000 2.550000 0.000002
v -1.250000 2.550000 0.000002
v -1.250000 0.016000 0.080000
v -1.250000 2.534000 0.080002
v 1.230000 0.016000 0.080000
v 1.230000 2.534005 0.080002
v 1.240000 0.016000 0.080000
v 1.240000 2.534004 0.080002
v 1.250000 0.017999 0.090000
v 1.250000 2.532004 0.090002
v 1.250000 0.028000 0.140000
v 1.250000 2.522004 0.140002
v 1.240000 0.030000 0.150000
v 1.240000 2.520005 0.150002
v -1.240000 0.016000 0.080000
v -1.240000 2.534001 0.080002
v -1.230000 0.017999 0.090000
v -1.230000 2.532001 0.090002
v -1.230000 0.028000 0.140000
v -1.230000 2.522001 0.140002
v -1.220000 0.030000 0.150000
v -1.220000 2.520000 0.150002
v 1.240000 1.030000 0.150001
v -1.220000 1.030000 0.150001
v 1.150000 0.950000 0.150001
v 1.150000 0.580000 0.150000
v 1.240000 0.580000 0.150000
v -1.150000 0.580000 0.150000
v -1.220000 0.580000 0.150000
v 1.100000 0.500000 0.150000
v -1.100000 0.500000 0.150000
v -1.150000 0.030000 0.150000
v 1.150000 0.030000 0.150000
v -1.065000 0.470000 0.000000
v 1.065000 0.470000 0.000000
v -1.115000 0.000000 0.000000
v 1.115000 0.000000 0.000000
v -0.975000 1.360000 0.100000
v -0.825000 1.360000 0.100000
v -1.125000 1.510000 0.050000
v -0.675000 1.960000 0.050000
v -0.975000 1.810000 0.100000
v -0.825000 1.810000 0.100000
v -1.125000 1.960000 0.050000
v -0.975000 2.260000 0.100000
v -0.825000 2.260000 0.100000
v -0.675000 1.060000 0.050000
v -0.525000 1.360000 0.100000
v -0.375000 1.360000 0.100000
v -0.225000 1.510000 0.050000
v -0.675000 1.510000 0.050000
v -0.525000 1.810000 0.100000
v -0.375000 1.810000 0.100000
v -0.675000 2.410000 0.050000
v -0.525000 2.260000 0.100000
v -0.375000 2.260000 0.100000
v -0.225000 1.060000 0.050000
v -0.075000 1.360000 0.100000
v 0.075000 1.360000 0.100000
v 0.225000 1.960000 0.050000
v -0.075000 1.810000 0.100000
v 0.075000 1.810000 0.100000
v -0.225000 1.960000 0.050000
v -0.225000 2.410000 0.050000
v -0.075000 2.260000 0.100000
v 0.075000 2.260000 0.100000
v 0.225000 1.060000 0.050000
v 0.675000 1.510000 0.050000
v 0.375000 1.360000 0.100000
v 0.525000 1.360000 0.100000
v 0.225000 1.510000 0.050000
v 0.375000 1.810000 0.100000
v 0.525000 1.810000 0.100000
v 0.675000 2.410000 0.050000
v 0.225000 2.410000 0.050000
v 0.375000 2.260000 0.100000
v 0.525000 2.260000 0.100000
v 0.675000 1.060000 0.050000
v 1.125000 1.510000 0.050000
v 0.825000 1.360000 0.100000
v 0.975000 1.360000 0.100000
v 0.825000 1.810000 0.100000
v 0.975000 1.810000 0.100000
v 1.125000 1.960000 0.050000
v 0.675000 1.960000 0.050000
v 0.825000 2.260000 0.100000
v 0.975000 2.260000 0.100000
vt 0.050000 0.415686
vt 0.050000 0.945098
vt 0.040000 0.403921
vt 0.950000 0.945098
vt 0.040000 0.956863
vt 0.950000 0.415686
vt 0.960000 0.403921
vt 0.950000 0.239216
vt 0.950000 0.360784
vt 0.050000 0.239216
vt 0.996000 0.227451
vt 0.960000 0.372549
vt 0.960000 0.227451
vt 0.940000 0.196078
vt 0.960000 0.011765
vt 0.996000 0.011765
vt 0.050000 0.360784
vt 0.040000 0.372549
vt 0.040000 0.227451
vt 0.996000 0.403921
vt 0.960000 0.956863
vt 0.012000 0.227451
vt 0.012000 0.403921
vt 0.040000 0.011765
vt 0.060000 0.196078
vt 0.012000 0.011765
vt 0.996000 0.988237
vt 0.012000 0.988235
vt 0.000000 0.000000
vt 0.074000 0.184314
vt 0.054000 0.000000
vt 0.992000 0.000000
vt 0.946000 0.000000
vt 0.926000 0.184314
vt 0.000000 1.000000
vt 0.992000 1.000000
vt 0.410000 0.592157
vt 0.350000 0.709804
vt 0.230000 0.592157
vt 0.410000 0.768627
vt 0.470000 0.886274
vt 0.410000 0.945098
vt 0.770000 0.945098
vt 0.590000 0.945098
vt 0.710000 0.886274
vt 0.950000 0.768627
vt 0.890000 0.886274
vt 0.770000 0.768627
vt 0.170000 0.533333
vt 0.230000 0.415686
vt 0.050000 0.592157
vt 0.170000 0.709804
vt 0.230000 0.768627
vt 0.050000 0.768627
vt 0.110000 0.709804
vt 0.170000 0.886274
vt 0.230000 0.945098
vt 0.410000 0.415686
vt 0.350000 0.533333
vt 0.290000 0.533333
vt 0.290000 0.709804
vt 0.350000 0.886274
vt 0.290000 0.886274
vt 0.590000 0.415686
vt 0.530000 0.533333
vt 0.590000 0.592157
vt 0.470000 0.533333
vt 0.530000 0.709804
vt 0.590000 0.768627
vt 0.470000 0.709804
vt 0.530000 0.886274
vt 0.770000 0.415686
vt 0.710000 0.533333
vt 0.770000 0.592157
vt 0.650000 0.533333
vt 0.710000 0.709804
vt 0.650000 0.709804
vt 0.650000 0.886274
vt 0.950000 0.592157
vt 0.890000 0.533333
vt 0.830000 0.533333
vt 0.890000 0.709804
vt 0.830000 0.709804
vt 0.830000 0.886274
vt 0.110000 0.886274
vt 0.110000 0.533333
vt 0.000000 0.006274
vt 0.992000 0.993728
vt 0.996000 0.993727
vt 0.992000 0.006274
vt 1.000000 0.992943
vt 0.996000 0.006274
vt 1.000000 0.989021
vt 1.000000 0.007058
vt 1.000000 0.010981
vt 0.004000 0.006274
vt 0.000000 0.993726
vt 0.008000 0.007058
vt 0.004000 0.993726
vt 0.008000 0.010981
vt 0.008000 0.989020
vt 0.008000 0.992941
vn 0.970143 -0.000000 0.242535
vn 0.000000 -0.957826 0.287348
vn -0.970142 -0.000000 0.242536
vn 0.000000 0.957826 0.287348
vn 0.000000 -0.000001 1.000000
vn 0.000000 -0.857493 0.514496
vn 0.894427 0.000000 0.447213
vn 0.000000 0.857493 0.514496
vn -0.894427 0.000000 0.447215
vn 0.000000 -0.957826 0.287349
vn -0.970142 -0.000000 0.242537
vn 0.000000 0.957827 0.287346
vn 0.000000 -0.857494 0.514494
vn 0.894427 -0.000000 0.447214
vn 0.000000 0.857492 0.514498
vn -0.894426 -0.000001 0.447215
vn 0.000000 0.000001 -1.000000
vn 0.000000 -0.164399 0.986394
vn -0.316228 0.000000 0.948683
vn 0.000000 0.316228 0.948683
vn 0.316228 0.000000 0.948683
vn -0.316227 0.000000 0.948683
vn 0.316227 0.000000 0.948683
vn -0.316220 -0.000004 0.948686
vn -0.000001 -0.164397 0.986394
vn 0.316226 0.000001 0.948684
vn 0.316221 -0.000004 0.948686
vn 0.000001 -0.164398 0.986394
vn -0.316226 0.000001 0.948684
vn 0.000004 0.316221 0.948686
vn -0.000004 0.316221 0.948685
vn 0.000000 0.316227 0.948683
vn 0.000000 0.316227 0.948684
vn 0.000000 0.316229 0.948683
vn 0.000000 -0.164397 0.986394
vn -1.000000 0.000000 0.000000
vn 1.000000 0.000000 0.000000
vn -0.000001 0.000001 -1.000000
vn 0.707107 0.000001 -0.707106
vn 0.707107 -0.000001 0.707107
vn -0.707108 -0.000001 0.707105
vn -0.707106 -0.000000 0.707108
vn 0.000094 0.980600 0.196021
vn 0.000000 -0.980581 0.196115
vn 0.963973 -0.102550 0.245437
vn -0.963973 -0.102551 0.245438
vn 0.707108 0.000001 -0.707106
vn 0.707106 -0.000001 0.707108
vn -0.707106 -0.000001 0.707108
vn -0.707107 -0.000001 0.707107
vn 0.000066 0.980582 0.196111
vn 0.000058 0.980581 0.196115
vn 0.000032 0.980580 0.196122
vn -0.000093 0.980581 0.196113
vn 0.000080 0.980582 0.196108
vn 0.000000 0.980583 0.196106
vn -0.000002 0.980593 0.196057
vn -0.000002 0.980581 0.196116
vn -0.000002 0.980578 0.196129
vn -0.000061 -0.980576 0.196140
vn 0.000000 -0.980578 0.196129
vn 0.000021 -0.980583 0.196102
vn 0.000000 -0.980581 0.196114
vn -0.000080 -0.980580 0.196120
vn 0.963973 -0.102551 0.245437
vn -0.000003 -0.980581 0.196113
vn 0.000000 -0.980581 0.196117
vn 0.000000 -0.980595 0.196047
vn 0.000033 -0.980582 0.196109
vn -0.000048 -0.980576 0.196138
vn -0.963973 -0.102550 0.245436
usemtl Panel_Front
s off
f 1/1/1 2/2/1 3/3/1
f 2/2/2 6/4/2 4/5/2
f 5/6/3 7/7/3 6/4/3
f 1/1/4 3/3/4 5/6/4
f 12/8/5 13/9/5 9/10/5
f 42/11/5 40/12/5 41/13/5
f 45/14/5 48/15/5 28/16/5
f 10/17/6 13/9/6 11/18/6
f 9/10/7 10/17/7 43/19/7
f 43/19/8 41/13/8 9/10/8
f 12/8/9 41/13/9 13/9/9
f 38/20/5 8/21/5 7/7/5
f 2/2/1 4/5/1 3/3/1
f 6/4/10 8/21/10 4/5/10
f 7/7/11 8/21/11 6/4/11
f 3/3/12 7/7/12 5/6/12
f 13/9/5 10/17/5 9/10/5
f 38/20/5 40/12/5 42/11/5
f 7/7/5 40/12/5 38/20/5
f 44/22/5 43/19/5 11/18/5
f 39/23/5 44/22/5 11/18/5
f 3/3/5 39/23/5 11/18/5
f 7/7/5 3/3/5 40/12/5
f 3/3/5 11/18/5 40/12/5
f 45/14/5 28/16/5 42/11/5
f 45/14/5 42/11/5 41/13/5
f 47/24/5 46/25/5 36/26/5
f 36/26/5 46/25/5 44/22/5
f 44/22/5 46/25/5 43/19/5
f 46/25/5 45/14/5 43/19/5
f 45/14/5 41/13/5 43/19/5
f 13/9/13 40/12/13 11/18/13
f 10/17/14 11/18/14 43/19/14
f 41/13/15 12/8/15 9/10/15
f 41/13/16 40/12/16 13/9/16
f 29/27/5 8/21/5 38/20/5
f 39/23/5 3/3/5 4/5/5
f 37/28/5 39/23/5 4/5/5
f 29/27/5 37/28/5 4/5/5
f 8/21/5 29/27/5 4/5/5
usemtl Panel_Back
f 15/29/17 49/30/17 51/31/17
f 14/32/17 52/33/17 50/34/17
f 17/35/17 49/30/17 15/29/17
f 17/35/17 16/36/17 49/30/17
f 16/36/17 14/32/17 50/34/17
f 49/30/17 16/36/17 50/34/17
usemtl Panel_Mosaic
f 65/37/18 68/38/18 66/39/18
f 78/40/19 80/41/19 79/42/19
f 89/43/20 90/44/20 92/45/20
f 99/46/18 102/47/18 100/48/18
f 66/39/21 54/49/21 62/50/21
f 66/39/20 55/51/20 54/49/20
f 66/39/18 58/52/18 55/51/18
f 56/53/21 58/52/21 66/39/21
f 56/53/20 59/54/20 58/52/20
f 55/51/22 57/55/22 59/54/22
f 56/53/18 61/56/18 59/54/18
f 69/57/21 61/56/21 56/53/21
f 72/58/18 64/59/18 62/50/18
f 65/37/21 64/59/21 72/58/21
f 65/37/20 66/39/20 64/59/20
f 62/50/19 63/60/19 66/39/19
f 78/40/23 68/38/23 65/37/23
f 78/40/20 56/53/20 68/38/20
f 66/39/19 67/61/19 56/53/19
f 78/40/18 71/62/18 56/53/18
f 79/42/21 71/62/21 78/40/21
f 79/42/20 69/57/20 71/62/20
f 56/53/19 70/63/19 69/57/19
f 82/64/18 74/65/18 72/58/18
f 86/66/23 74/65/23 82/64/23
f 86/66/20 65/37/20 74/65/20
f 72/58/22 73/67/22 65/37/22
f 86/66/18 77/68/18 65/37/18
f 75/69/23 77/68/23 86/66/23
f 75/69/20 78/40/20 77/68/20
f 65/37/22 76/70/22 78/40/22
f 75/69/18 81/71/18 78/40/18
f 90/44/21 81/71/21 75/69/21
f 90/44/20 79/42/20 81/71/20
f 93/72/18 85/73/18 82/64/18
f 83/74/21 85/73/21 93/72/21
f 83/74/20 86/66/20 85/73/20
f 82/64/22 84/75/22 86/66/22
f 83/74/18 88/76/18 86/66/18
f 100/48/23 88/76/23 83/74/23
f 100/48/20 75/69/20 88/76/20
f 86/66/22 87/77/22 75/69/22
f 100/48/18 92/45/18 75/69/18
f 89/43/21 92/45/21 100/48/21
f 75/69/19 91/78/19 90/44/19
f 94/79/20 83/74/20 96/80/20
f 93/72/19 95/81/19 83/74/19
f 94/79/18 98/82/18 83/74/18
f 99/46/23 98/82/23 94/79/23
f 99/46/20 100/48/20 98/82/20
f 83/74/22 97/83/22 100/48/22
f 100/48/19 101/84/19 89/43/19
f 59/54/24 60/85/24 2/2/24
f 5/6/25 96/80/25 93/72/25
f 94/79/26 96/80/26 5/6/26
f 6/4/27 102/47/27 99/46/27
f 62/50/28 54/49/28 1/1/28
f 1/1/29 53/86/29 55/51/29
f 69/57/30 2/2/30 60/85/30
f 6/4/31 89/43/31 102/47/31
f 68/38/18 67/61/18 66/39/18
f 90/44/20 91/78/20 92/45/20
f 102/47/18 101/84/18 100/48/18
f 55/51/32 53/86/32 54/49/32
f 58/52/18 57/55/18 55/51/18
f 59/54/20 57/55/20 58/52/20
f 61/56/18 60/85/18 59/54/18
f 64/59/18 63/60/18 62/50/18
f 66/39/33 63/60/33 64/59/33
f 56/53/20 67/61/20 68/38/20
f 71/62/18 70/63/18 56/53/18
f 69/57/34 70/63/34 71/62/34
f 74/65/18 73/67/18 72/58/18
f 65/37/20 73/67/20 74/65/20
f 77/68/18 76/70/18 65/37/18
f 78/40/20 76/70/20 77/68/20
f 81/71/18 80/41/18 78/40/18
f 79/42/20 80/41/20 81/71/20
f 85/73/18 84/75/18 82/64/18
f 86/66/20 84/75/20 85/73/20
f 88/76/18 87/77/18 86/66/18
f 75/69/20 87/77/20 88/76/20
f 92/45/18 91/78/18 75/69/18
f 83/74/20 95/81/20 96/80/20
f 98/82/18 97/83/18 83/74/18
f 100/48/20 97/83/20 98/82/20
f 96/80/18 95/81/18 93/72/18
f 54/49/35 53/86/35 1/1/35
f 61/56/34 69/57/34 60/85/34
f 89/43/20 101/84/20 102/47/20
usemtl Panel_Edge
f 15/29/36 18/87/36 17/35/36
f 16/36/37 21/88/37 14/32/37
f 21/88/38 23/89/38 20/90/38
f 23/89/39 25/91/39 22/92/39
f 25/91/37 27/93/37 24/94/37
f 27/93/40 29/27/40 26/95/40
f 18/87/5 30/96/5 19/97/5
f 30/96/41 32/98/41 31/99/41
f 32/98/36 34/100/36 35/101/36
f 34/100/42 36/26/42 35/101/42
f 21/88/43 25/91/43 23/89/43
f 45/14/44 46/25/44 50/34/44
f 15/29/44 51/31/44 47/24/44
f 47/24/45 51/31/45 46/25/45
f 52/33/44 14/32/44 48/15/44
f 48/15/46 45/14/46 52/33/46
f 18/87/36 19/97/36 17/35/36
f 21/88/37 20/90/37 14/32/37
f 23/89/17 22/92/17 20/90/17
f 25/91/47 24/94/47 22/92/47
f 27/93/37 26/95/37 24/94/37
f 29/27/48 28/16/48 26/95/48
f 30/96/5 31/99/5 19/97/5
f 32/98/49 33/102/49 31/99/49
f 33/102/36 32/98/36 35/101/36
f 36/26/50 37/28/50 35/101/50
f 21/88/51 27/93/51 25/91/51
f 21/88/52 29/27/52 27/93/52
f 37/28/53 33/102/53 35/101/53
f 17/35/54 19/97/54 31/99/54
f 17/35/55 31/99/55 33/102/55
f 16/36/56 17/35/56 33/102/56
f 21/88/57 16/36/57 33/102/57
f 29/27/58 21/88/58 33/102/58
f 37/28/59 29/27/59 33/102/59
f 46/25/44 49/30/44 50/34/44
f 32/98/60 36/26/60 34/100/60
f 32/98/61 47/24/61 36/26/61
f 15/29/62 47/24/62 32/98/62
f 18/87/63 15/29/63 30/96/63
f 15/29/64 32/98/64 30/96/64
f 51/31/65 49/30/65 46/25/65
f 14/32/66 20/90/66 48/15/66
f 48/15/67 20/90/67 28/16/67
f 20/90/68 22/92/68 24/94/68
f 28/16/69 20/90/69 26/95/69
f 20/90/70 24/94/70 26/95/70
f 45/14/71 50/34/71 52/33/71
