# Created by Andrey P.  pnn32.deviantart.com
# Blender v2.69 (sub 0) OBJ File: 'ConcreteFence.blend'
# www.blender.org
mtllib Panel_DMD_2.50x3.00.mtl
o Panel_DMD_2.50x3.00
v -0.975000 1.360000 0.100000
v -0.825000 1.360000 0.100000
v -0.225000 1.060000 0.050000
v -0.675000 1.060000 0.050000
v -0.525000 1.360000 0.100000
v -0.375000 1.360000 0.100000
v 0.225000 1.060000 0.050000
v -0.225000 1.510000 0.050000
v -0.075000 1.360000 0.100000
v 0.075000 1.360000 0.100000
v 0.375000 1.360000 0.100000
v 0.525000 1.360000 0.100000
v 0.675000 1.060000 0.050000
v 1.125000 1.510000 0.050000
v 0.825000 1.360000 0.100000
v 0.975000 1.360000 0.100000
v -1.125000 1.510000 0.050000
v -0.675000 1.960000 0.050000
v -0.975000 1.810000 0.100000
v -0.825000 1.810000 0.100000
v -0.675000 1.510000 0.050000
v -0.525000 1.810000 0.100000
v -0.375000 1.810000 0.100000
v -0.075000 1.810000 0.100000
v 0.075000 1.810000 0.100000
v 0.675000 1.510000 0.050000
v 0.225000 1.510000 0.050000
v 0.675000 1.960000 0.050000
v 0.225000 1.960000 0.050000
v 0.375000 1.810000 0.100000
v 0.525000 1.810000 0.100000
v 1.125000 1.960000 0.050000
v 0.825000 1.810000 0.100000
v 0.975000 1.810000 0.100000
v -1.125000 1.960000 0.050000
v -0.675000 2.410000 0.050000
v -0.975000 2.260000 0.100000
v -0.825000 2.260000 0.100000
v -0.525000 2.260000 0.100000
v -0.375000 2.260000 0.100000
v -0.225000 1.960000 0.050000
v -0.225000 2.410000 0.050000
v -0.075000 2.260000 0.100000
v 0.075000 2.260000 0.100000
v 0.375000 2.260000 0.100000
v 0.525000 2.260000 0.100000
v 1.125000 2.410000 0.050000
v 0.825000 2.260000 0.100000
v 0.975000 2.260000 0.100000
v -1.125000 2.410000 0.050000
v -0.975000 2.710000 0.100000
v -0.825000 2.710000 0.100000
v -0.675000 2.860000 0.050000
v -0.525000 2.710000 0.100000
v -0.375000 2.710000 0.100000
v 0.225000 2.860000 0.050000
v -0.225000 2.860000 0.050000
v -0.075000 2.710000 0.100000
v 0.075000 2.710000 0.100000
v 0.225000 2.410000 0.050000
v 0.375000 2.710000 0.100000
v 0.525000 2.710000 0.100000
v 0.675000 2.410000 0.050000
v 0.675000 2.860000 0.050000
v 0.825000 2.710000 0.100000
v 0.975000 2.710000 0.100000
v -1.125000 1.060000 0.050001
v -1.125000 2.860000 0.050002
v -1.150000 1.030000 0.150001
v -1.150000 2.890000 0.150002
v 1.125000 1.060000 0.050001
v 1.125000 2.860000 0.050002
v 1.150000 1.030000 0.150001
v 1.150000 2.890000 0.150002
v -1.125000 0.610000 0.100000
v -1.125000 0.920000 0.100001
v -1.150000 0.950000 0.150001
v 1.125000 0.610000 0.100000
v 1.125000 0.920000 0.100001
v 1.230000 0.000000 0.000000
v -1.250000 0.000000 0.000000
v 1.230000 3.000000 0.000002
v -1.250000 3.000000 0.000002
v -1.250000 0.016000 0.080000
v -1.250000 2.984000 0.080002
v 1.230000 0.016000 0.080000
v 1.230000 2.984005 0.080002
v 1.240000 0.016000 0.080000
v 1.240000 2.984004 0.080002
v 1.250000 0.017999 0.090000
v 1.250000 2.982004 0.090002
v 1.250000 0.028000 0.140000
v 1.250000 2.972004 0.140002
v 1.240000 0.030000 0.150000
v 1.240000 2.970005 0.150002
v -1.240000 0.016000 0.080000
v -1.240000 2.984001 0.080002
v -1.230000 0.017999 0.090000
v -1.230000 2.982001 0.090002
v -1.230000 0.028000 0.140000
v -1.230000 2.972001 0.140002
v -1.220000 0.030000 0.150000
v -1.220000 2.970000 0.150002
v 1.240000 1.030000 0.150001
v -1.220000 1.030000 0.150001
v 1.150000 0.950000 0.150001
v 1.150000 0.580000 0.150000
v 1.240000 0.580000 0.150000
v -1.150000 0.580000 0.150000
v -1.220000 0.580000 0.150000
v 1.100000 0.500000 0.150000
v -1.100000 0.500000 0.150000
v -1.150000 0.030000 0.150000
v 1.150000 0.030000 0.150000
v -1.065000 0.470000 0.000000
v 1.065000 0.470000 0.000000
v -1.115000 0.000000 0.000000
v 1.115000 0.000000 0.000000
vt 0.050000 0.353333
vt 0.050000 0.953333
vt 0.040000 0.343333
vt 0.950000 0.953333
vt 0.040000 0.963333
vt 0.950000 0.353333
vt 0.960000 0.343333
vt 0.950000 0.203333
vt 0.950000 0.306667
vt 0.050000 0.203333
vt 0.940000 0.166667
vt 0.960000 0.010000
vt 0.996000 0.010000
vt 0.050000 0.306667
vt 0.040000 0.316667
vt 0.040000 0.193333
vt 0.960000 0.193333
vt 0.996000 0.343333
vt 0.960000 0.963333
vt 0.996000 0.193333
vt 0.960000 0.316667
vt 0.040000 0.010000
vt 0.060000 0.166667
vt 0.012000 0.010000
vt 0.012000 0.193333
vt 0.996000 0.990002
vt 0.012000 0.343333
vt 0.012000 0.990000
vt 0.000000 0.000000
vt 0.074000 0.156667
vt 0.054000 0.000000
vt 0.992000 0.000000
vt 0.946000 0.000000
vt 0.926000 0.156667
vt 0.000000 1.000000
vt 0.992000 1.000000
vt 0.410000 0.353333
vt 0.350000 0.453333
vt 0.230000 0.353333
vt 0.770000 0.503333
vt 0.710000 0.603333
vt 0.590000 0.503333
vt 0.770000 0.653333
vt 0.590000 0.653333
vt 0.650000 0.603333
vt 0.410000 0.653333
vt 0.470000 0.753333
vt 0.410000 0.803333
vt 0.590000 0.953333
vt 0.410000 0.953333
vt 0.530000 0.903333
vt 0.770000 0.803333
vt 0.830000 0.903333
vt 0.770000 0.953333
vt 0.230000 0.503333
vt 0.170000 0.453333
vt 0.050000 0.503333
vt 0.410000 0.503333
vt 0.290000 0.453333
vt 0.590000 0.353333
vt 0.530000 0.453333
vt 0.470000 0.453333
vt 0.770000 0.353333
vt 0.710000 0.453333
vt 0.650000 0.453333
vt 0.950000 0.503333
vt 0.890000 0.453333
vt 0.830000 0.453333
vt 0.170000 0.603333
vt 0.230000 0.653333
vt 0.050000 0.653333
vt 0.110000 0.603333
vt 0.350000 0.603333
vt 0.290000 0.603333
vt 0.530000 0.603333
vt 0.470000 0.603333
vt 0.890000 0.603333
vt 0.950000 0.653333
vt 0.830000 0.603333
vt 0.170000 0.753333
vt 0.230000 0.803333
vt 0.050000 0.803333
vt 0.110000 0.753333
vt 0.350000 0.753333
vt 0.290000 0.753333
vt 0.530000 0.753333
vt 0.590000 0.803333
vt 0.710000 0.753333
vt 0.650000 0.753333
vt 0.890000 0.753333
vt 0.950000 0.803333
vt 0.830000 0.753333
vt 0.170000 0.903333
vt 0.230000 0.953333
vt 0.350000 0.903333
vt 0.290000 0.903333
vt 0.470000 0.903333
vt 0.710000 0.903333
vt 0.650000 0.903333
vt 0.890000 0.903333
vt 0.110000 0.903333
vt 0.110000 0.453333
vt 0.000000 0.005333
vt 0.992000 0.994669
vt 0.996000 0.994668
vt 0.992000 0.005333
vt 1.000000 0.994002
vt 0.996000 0.005333
vt 1.000000 0.990668
vt 1.000000 0.006000
vt 1.000000 0.009333
vt 0.004000 0.005333
vt 0.000000 0.994667
vt 0.008000 0.006000
vt 0.004000 0.994667
vt 0.008000 0.009333
vt 0.008000 0.994000
vt 0.008000 0.990667
vn 0.970143 -0.000000 0.242535
vn 0.000000 -0.957826 0.287348
vn -0.970142 -0.000000 0.242537
vn 0.000000 0.957826 0.287348
vn 0.000000 -0.000001 1.000000
vn 0.000000 -0.857493 0.514496
vn 0.894427 0.000000 0.447213
vn 0.000000 0.857493 0.514496
vn -0.894427 0.000000 0.447215
vn 0.000000 -0.957826 0.287349
vn -0.970142 -0.000000 0.242536
vn 0.000000 0.957827 0.287346
vn 0.000000 -0.857494 0.514494
vn 0.894427 -0.000000 0.447214
vn 0.000000 0.857492 0.514498
vn -0.894426 -0.000001 0.447215
vn 0.000000 0.000001 -1.000000
vn 0.000000 -0.164399 0.986394
vn 0.316227 0.000000 0.948683
vn 0.000000 0.316228 0.948683
vn -0.316227 0.000000 0.948683
vn -0.316228 0.000000 0.948683
vn 0.316228 0.000000 0.948683
vn -0.000001 -0.164397 0.986394
vn 0.316226 0.000001 0.948684
vn -0.316221 -0.000004 0.948686
vn -0.000004 0.316220 0.948686
vn 0.000001 -0.164398 0.986394
vn -0.316226 0.000001 0.948684
vn 0.000004 0.316221 0.948686
vn 0.316221 -0.000004 0.948686
vn 0.000000 0.316229 0.948683
vn 0.000000 0.316227 0.948683
vn 0.000000 0.316227 0.948684
vn 0.000000 -0.164397 0.986394
vn -1.000000 0.000000 0.000000
vn 1.000000 0.000000 0.000000
vn 0.707107 0.000000 -0.707107
vn 0.707107 -0.000000 0.707106
vn -0.707107 -0.000000 0.707106
vn -0.707108 -0.000000 0.707106
vn 0.000094 0.980600 0.196021
vn 0.000000 -0.980581 0.196115
vn 0.963973 -0.102550 0.245437
vn -0.963973 -0.102551 0.245438
vn 0.707107 0.000000 -0.707106
vn 0.707108 -0.000000 0.707106
vn -0.000001 -0.000001 1.000000
vn -0.707107 -0.000000 0.707107
vn 0.000066 0.980582 0.196111
vn 0.000058 0.980581 0.196115
vn 0.000032 0.980581 0.196115
vn -0.000093 0.980581 0.196113
vn 0.000080 0.980583 0.196103
vn 0.000000 0.980582 0.196112
vn -0.000002 0.980594 0.196048
vn -0.000002 0.980578 0.196127
vn -0.000002 0.980581 0.196116
vn -0.000061 -0.980576 0.196140
vn 0.000000 -0.980578 0.196129
vn 0.000021 -0.980583 0.196102
vn 0.000000 -0.980581 0.196114
vn -0.000080 -0.980580 0.196120
vn 0.963973 -0.102551 0.245437
vn -0.000003 -0.980581 0.196113
vn 0.000000 -0.980581 0.196117
vn 0.000000 -0.980595 0.196047
vn 0.000033 -0.980582 0.196109
vn -0.000048 -0.980576 0.196138
vn -0.963973 -0.102550 0.245436
usemtl Panel_Front
s off
f 67/1/1 68/2/1 69/3/1
f 68/2/2 72/4/2 70/5/2
f 71/6/3 73/7/3 72/4/3
f 67/1/4 69/3/4 71/6/4
f 78/8/5 79/9/5 75/10/5
f 111/11/5 114/12/5 94/13/5
f 76/14/6 79/9/6 77/15/6
f 75/10/7 76/14/7 109/16/7
f 109/16/8 107/17/8 75/10/8
f 78/8/9 107/17/9 79/9/9
f 104/18/5 74/19/5 73/7/5
f 108/20/5 106/21/5 107/17/5
f 68/2/1 70/5/1 69/3/1
f 72/4/10 74/19/10 70/5/10
f 73/7/11 74/19/11 72/4/11
f 69/3/12 73/7/12 71/6/12
f 79/9/5 76/14/5 75/10/5
f 111/11/5 94/13/5 108/20/5
f 111/11/5 108/20/5 107/17/5
f 113/22/5 112/23/5 102/24/5
f 102/24/5 112/23/5 110/25/5
f 110/25/5 112/23/5 109/16/5
f 112/23/5 111/11/5 109/16/5
f 111/11/5 107/17/5 109/16/5
f 79/9/13 106/21/13 77/15/13
f 76/14/14 77/15/14 109/16/14
f 107/17/15 78/8/15 75/10/15
f 107/17/16 106/21/16 79/9/16
f 95/26/5 74/19/5 104/18/5
f 105/27/5 69/3/5 70/5/5
f 103/28/5 105/27/5 70/5/5
f 95/26/5 103/28/5 70/5/5
f 74/19/5 95/26/5 70/5/5
f 104/18/5 106/21/5 108/20/5
f 73/7/5 106/21/5 104/18/5
f 110/25/5 109/16/5 77/15/5
f 105/27/5 110/25/5 77/15/5
f 69/3/5 105/27/5 77/15/5
f 73/7/5 69/3/5 106/21/5
f 69/3/5 77/15/5 106/21/5
usemtl Panel_Back
f 81/29/17 115/30/17 117/31/17
f 80/32/17 118/33/17 116/34/17
f 83/35/17 115/30/17 81/29/17
f 83/35/17 82/36/17 115/30/17
f 82/36/17 80/32/17 116/34/17
f 115/30/17 82/36/17 116/34/17
usemtl Panel_Mosaic
f 3/37/18 6/38/18 4/39/18
f 26/40/18 31/41/18 27/42/18
f 28/43/19 31/41/19 26/40/19
f 28/43/20 29/44/20 31/41/20
f 27/42/21 30/45/21 29/44/21
f 41/46/22 43/47/22 42/48/22
f 56/49/20 57/50/20 59/51/20
f 63/52/22 65/53/22 64/54/22
f 21/55/23 2/56/23 4/39/23
f 21/55/20 17/57/20 2/56/20
f 8/58/23 6/38/23 3/37/23
f 8/58/20 21/55/20 6/38/20
f 4/39/22 5/59/22 21/55/22
f 7/60/18 10/61/18 3/37/18
f 27/42/19 10/61/19 7/60/19
f 27/42/20 8/58/20 10/61/20
f 3/37/22 9/62/22 8/58/22
f 13/63/18 12/64/18 7/60/18
f 26/40/19 12/64/19 13/63/19
f 26/40/20 27/42/20 12/64/20
f 7/60/21 11/65/21 27/42/21
f 14/66/20 26/40/20 16/67/20
f 13/63/21 15/68/21 26/40/21
f 21/55/18 20/69/18 17/57/18
f 18/70/23 20/69/23 21/55/23
f 18/70/20 35/71/20 20/69/20
f 17/57/21 19/72/21 35/71/21
f 8/58/18 23/73/18 21/55/18
f 41/46/23 23/73/23 8/58/23
f 41/46/20 18/70/20 23/73/20
f 21/55/22 22/74/22 18/70/22
f 27/42/18 25/75/18 8/58/18
f 29/44/19 25/75/19 27/42/19
f 29/44/20 41/46/20 25/75/20
f 8/58/21 24/76/21 41/46/21
f 14/66/18 34/77/18 26/40/18
f 32/78/19 34/77/19 14/66/19
f 32/78/20 28/43/20 34/77/20
f 26/40/21 33/79/21 28/43/21
f 18/70/18 38/80/18 35/71/18
f 36/81/23 38/80/23 18/70/23
f 36/81/20 50/82/20 38/80/20
f 35/71/21 37/83/21 50/82/21
f 41/46/18 40/84/18 18/70/18
f 42/48/23 40/84/23 41/46/23
f 42/48/20 36/81/20 40/84/20
f 18/70/22 39/85/22 36/81/22
f 29/44/18 44/86/18 41/46/18
f 60/87/19 44/86/19 29/44/19
f 60/87/20 42/48/20 44/86/20
f 28/43/18 46/88/18 29/44/18
f 63/52/19 46/88/19 28/43/19
f 63/52/20 60/87/20 46/88/20
f 29/44/21 45/89/21 60/87/21
f 32/78/18 49/90/18 28/43/18
f 47/91/23 49/90/23 32/78/23
f 47/91/20 63/52/20 49/90/20
f 28/43/21 48/92/21 63/52/21
f 36/81/18 52/93/18 50/82/18
f 53/94/23 52/93/23 36/81/23
f 42/48/18 55/95/18 36/81/18
f 57/50/23 55/95/23 42/48/23
f 57/50/20 53/94/20 55/95/20
f 36/81/22 54/96/22 53/94/22
f 60/87/18 59/51/18 42/48/18
f 56/49/23 59/51/23 60/87/23
f 42/48/22 58/97/22 57/50/22
f 63/52/18 62/98/18 60/87/18
f 64/54/23 62/98/23 63/52/23
f 64/54/20 56/49/20 62/98/20
f 60/87/22 61/99/22 56/49/22
f 47/91/18 66/100/18 63/52/18
f 71/6/24 16/67/24 13/63/24
f 14/66/25 16/67/25 71/6/25
f 50/82/26 51/101/26 68/2/26
f 72/4/27 64/54/27 66/100/27
f 4/39/28 2/56/28 67/1/28
f 67/1/29 1/102/29 17/57/29
f 53/94/30 68/2/30 51/101/30
f 72/4/31 66/100/31 47/91/31
f 6/38/18 5/59/18 4/39/18
f 31/41/18 30/45/18 27/42/18
f 29/44/20 30/45/20 31/41/20
f 57/50/32 58/97/32 59/51/32
f 17/57/33 1/102/33 2/56/33
f 21/55/34 5/59/34 6/38/34
f 10/61/18 9/62/18 3/37/18
f 8/58/20 9/62/20 10/61/20
f 12/64/18 11/65/18 7/60/18
f 27/42/20 11/65/20 12/64/20
f 26/40/20 15/68/20 16/67/20
f 20/69/18 19/72/18 17/57/18
f 35/71/20 19/72/20 20/69/20
f 23/73/18 22/74/18 21/55/18
f 18/70/20 22/74/20 23/73/20
f 25/75/18 24/76/18 8/58/18
f 41/46/20 24/76/20 25/75/20
f 34/77/18 33/79/18 26/40/18
f 28/43/20 33/79/20 34/77/20
f 38/80/18 37/83/18 35/71/18
f 50/82/32 37/83/32 38/80/32
f 40/84/18 39/85/18 18/70/18
f 36/81/32 39/85/32 40/84/32
f 44/86/18 43/47/18 41/46/18
f 42/48/20 43/47/20 44/86/20
f 46/88/18 45/89/18 29/44/18
f 60/87/20 45/89/20 46/88/20
f 49/90/18 48/92/18 28/43/18
f 63/52/20 48/92/20 49/90/20
f 52/93/18 51/101/18 50/82/18
f 55/95/18 54/96/18 36/81/18
f 53/94/32 54/96/32 55/95/32
f 59/51/18 58/97/18 42/48/18
f 62/98/18 61/99/18 60/87/18
f 56/49/32 61/99/32 62/98/32
f 66/100/18 65/53/18 63/52/18
f 16/67/18 15/68/18 13/63/18
f 64/54/32 65/53/32 66/100/32
f 2/56/35 1/102/35 67/1/35
f 52/93/32 53/94/32 51/101/32
usemtl Panel_Edge
f 81/29/36 84/103/36 83/35/36
f 82/36/37 87/104/37 80/32/37
f 87/104/17 89/105/17 86/106/17
f 89/105/38 91/107/38 88/108/38
f 91/107/37 93/109/37 90/110/37
f 93/109/39 95/26/39 92/111/39
f 84/103/5 96/112/5 85/113/5
f 96/112/40 98/114/40 97/115/40
f 98/114/36 100/116/36 99/117/36
f 100/116/41 102/24/41 101/118/41
f 87/104/42 91/107/42 89/105/42
f 111/11/43 112/23/43 116/34/43
f 81/29/43 117/31/43 113/22/43
f 113/22/44 117/31/44 112/23/44
f 118/33/43 80/32/43 114/12/43
f 114/12/45 111/11/45 118/33/45
f 84/103/36 85/113/36 83/35/36
f 87/104/37 86/106/37 80/32/37
f 89/105/17 88/108/17 86/106/17
f 91/107/46 90/110/46 88/108/46
f 93/109/37 92/111/37 90/110/37
f 95/26/47 94/13/47 92/111/47
f 96/112/48 97/115/48 85/113/48
f 98/114/40 99/117/40 97/115/40
f 100/116/36 101/118/36 99/117/36
f 102/24/49 103/28/49 101/118/49
f 87/104/50 93/109/50 91/107/50
f 87/104/51 95/26/51 93/109/51
f 103/28/52 99/117/52 101/118/52
f 83/35/53 85/113/53 97/115/53
f 83/35/54 97/115/54 99/117/54
f 82/36/55 83/35/55 99/117/55
f 87/104/56 82/36/56 99/117/56
f 95/26/57 87/104/57 99/117/57
f 103/28/58 95/26/58 99/117/58
f 112/23/43 115/30/43 116/34/43
f 98/114/59 102/24/59 100/116/59
f 98/114/60 113/22/60 102/24/60
f 81/29/61 113/22/61 98/114/61
f 84/103/62 81/29/62 96/112/62
f 81/29/63 98/114/63 96/112/63
f 117/31/64 115/30/64 112/23/64
f 80/32/65 86/106/65 114/12/65
f 114/12/66 86/106/66 94/13/66
f 86/106/67 88/108/67 90/110/67
f 94/13/68 86/106/68 92/111/68
f 86/106/69 90/110/69 92/111/69
f 111/11/70 116/34/70 118/33/70
